<svg xmlns="http://www.w3.org/2000/svg" viewBox="0 0 512 512">
  <!-- Font Awesome Free 6.4.0 by @fontawesome - https://fontawesome.com License - https://fontawesome.com/license (Commercial License) Copyright 2023 Fonticons, Inc. -->
  <path fill="#3b82f6" d="M256 0c4.6 0 9.2 1 13.4 2.9L457.7 82.8c22 9.3 38.4 31 38.3 57.2c-.5 99.2-27.4 175.7-78.7 236.4c-47.5 56.1-99 87.1-155 93c-2.3 .2-4.7 .3-7 .2l-1.3 0c-2.4 .1-4.7 0-7.1-.2c-56.1-5.9-107.5-36.9-155-93C41.8 315.7 14.9 239.2 14.4 140c-.1-26.2 16.3-47.9 38.3-57.2L242.6 2.9C246.8 1 251.4 0 256 0z"/>
</svg>
